<?xml version="1.0" encoding="UTF-8" standalone="no"?>
<!-- Created with Inkscape (http://www.inkscape.org/) -->

<svg
   width="112.1457mm"
   height="112.24126mm"
   viewBox="0 0 112.1457 112.24127"
   version="1.1"
   id="svg1"
   xml:space="preserve"
   inkscape:version="1.3.2 (091e20e, 2023-11-25, custom)"
   sodipodi:docname="logo-linkedin.svg"
   inkscape:export-filename="logo-github.webp"
   inkscape:export-xdpi="96"
   inkscape:export-ydpi="96"
   xmlns:inkscape="http://www.inkscape.org/namespaces/inkscape"
   xmlns:sodipodi="http://sodipodi.sourceforge.net/DTD/sodipodi-0.dtd"
   xmlns="http://www.w3.org/2000/svg"
   xmlns:svg="http://www.w3.org/2000/svg"><sodipodi:namedview
     id="namedview1"
     pagecolor="#ffffff"
     bordercolor="#000000"
     borderopacity="0.25"
     inkscape:showpageshadow="2"
     inkscape:pageopacity="0.0"
     inkscape:pagecheckerboard="0"
     inkscape:deskcolor="#d1d1d1"
     inkscape:document-units="mm"
     inkscape:zoom="0.4894542"
     inkscape:cx="-93.982237"
     inkscape:cy="101.13306"
     inkscape:window-width="2400"
     inkscape:window-height="1261"
     inkscape:window-x="2391"
     inkscape:window-y="-9"
     inkscape:window-maximized="1"
     inkscape:current-layer="layer1" /><defs
     id="defs1" /><g
     inkscape:label="Calque 1"
     inkscape:groupmode="layer"
     id="layer1"
     transform="translate(-54.389582,-57.306719)"><ellipse
       style="fill:#646464;fill-opacity:1;stroke:#000000;stroke-width:0.300357;stroke-linecap:round;stroke-linejoin:round;stroke-dasharray:none"
       id="path1"
       cx="110.46243"
       cy="113.42735"
       rx="55.922672"
       ry="55.970455" /><ellipse
       style="fill:#ffffff;fill-opacity:1;stroke:#000000;stroke-width:0.1;stroke-linecap:round;stroke-linejoin:round"
       id="path2"
       cx="88.026649"
       cy="91.708267"
       rx="8.2181473"
       ry="8.0270271" /><rect
       style="fill:#ffffff;fill-opacity:1;stroke:#000000;stroke-width:0.1;stroke-linecap:round;stroke-linejoin:round"
       id="rect2"
       width="12.23166"
       height="38.797295"
       x="82.101936"
       y="104.13104"
       ry="1.179716" /><path
       style="fill:#ffffff;fill-opacity:1;stroke:#000000;stroke-width:0.1;stroke-linecap:round;stroke-linejoin:round"
       d="m 101.40503,104.29152 c 0.36797,-0.60917 1.25175,-0.1704 1.85483,-0.30193 2.46655,0.002 4.93311,0.005 7.39967,0.007 0.44549,0.48057 0.10389,1.30225 0.21958,1.92575 0.0114,1.44137 0.0228,2.88273 0.0341,4.3241 1.31829,-1.74101 2.88822,-3.38801 4.97274,-4.18022 2.8073,-1.5245 6.03461,-2.11164 9.20767,-2.08702 1.4268,-0.0493 2.87871,0.11984 4.27177,0.37639 1.72331,0.64363 3.355,1.53638 4.88385,2.54789 1.3184,1.00047 2.70061,2.0264 3.40693,3.57559 0.73748,1.26925 1.1017,2.72949 1.49496,4.12797 -6.6e-4,9.22258 -0.001,18.44515 -0.002,27.66773 -0.442,0.39447 -1.31626,0.0678 -1.93138,0.17353 -2.8002,-0.003 -5.60041,-0.006 -8.40061,-0.009 -0.24894,-0.76266 -0.0428,-1.68626 -0.11558,-2.51124 -0.0526,-5.94632 0.0164,-11.89605 -0.11568,-17.84019 -0.12786,-1.95384 -0.71984,-3.83992 -1.64781,-5.55791 -0.51474,-1.07196 -1.15905,-2.18202 -2.38664,-2.54883 -1.55032,-0.56057 -3.25501,-0.48153 -4.88385,-0.47548 -1.91318,0.0678 -3.81345,0.96486 -5.06471,2.4177 -1.08424,1.18534 -2.02771,2.60099 -2.37149,4.18402 -0.0732,7.34899 -0.0243,14.70203 -0.0506,22.05257 -0.42283,0.51822 -1.29899,0.12238 -1.91684,0.24738 -2.88551,0.003 -5.77102,0.006 -8.65653,0.009 -0.40673,-0.59848 -0.0843,-1.42118 -0.18749,-2.11302 -0.005,-12.00423 -0.01,-24.00847 -0.015,-36.01271 z"
       id="path3" /></g></svg>
