<?xml version="1.0" encoding="UTF-8" standalone="no"?>
<!-- Created with Inkscape (http://www.inkscape.org/) -->

<svg
   width="112.1457mm"
   height="112.24126mm"
   viewBox="0 0 112.1457 112.24126"
   version="1.1"
   id="svg1"
   xml:space="preserve"
   inkscape:version="1.3.2 (091e20e, 2023-11-25, custom)"
   sodipodi:docname="logo-github.svg"
   xmlns:inkscape="http://www.inkscape.org/namespaces/inkscape"
   xmlns:sodipodi="http://sodipodi.sourceforge.net/DTD/sodipodi-0.dtd"
   xmlns="http://www.w3.org/2000/svg"
   xmlns:svg="http://www.w3.org/2000/svg"><sodipodi:namedview
     id="namedview1"
     pagecolor="#ffffff"
     bordercolor="#000000"
     borderopacity="0.25"
     inkscape:showpageshadow="2"
     inkscape:pageopacity="0.0"
     inkscape:pagecheckerboard="0"
     inkscape:deskcolor="#d1d1d1"
     inkscape:document-units="mm"
     inkscape:zoom="0.69219276"
     inkscape:cx="-296.16028"
     inkscape:cy="210.20156"
     inkscape:window-width="2400"
     inkscape:window-height="1261"
     inkscape:window-x="2391"
     inkscape:window-y="-9"
     inkscape:window-maximized="1"
     inkscape:current-layer="layer1" /><defs
     id="defs1" /><g
     inkscape:label="Calque 1"
     inkscape:groupmode="layer"
     id="layer1"
     transform="translate(-54.389582,-57.306719)"><ellipse
       style="fill:#646464;fill-opacity:1;stroke:#000000;stroke-width:0.300357;stroke-linecap:round;stroke-linejoin:round;stroke-dasharray:none"
       id="path1"
       cx="110.46243"
       cy="113.42735"
       rx="55.922672"
       ry="55.970455" /><path
       style="fill:#ffffff;fill-opacity:1;stroke:#000000;stroke-width:0.295368;stroke-linecap:round;stroke-linejoin:round;stroke-dasharray:none"
       d="m 100.53857,83.525399 c 3.13927,-0.8165 6.33759,-1.391147 9.59289,-1.361325 3.26001,-0.179499 6.4194,0.770683 9.62842,1.124823 1.83574,-1.508454 3.84636,-2.809143 6.15253,-3.454997 1.41197,-0.650481 2.96445,-0.363377 4.46389,-0.39685 0.75273,2.512836 2.12581,5.196668 0.96277,7.810772 -0.56104,1.37001 0.18653,2.733599 1.12702,3.726522 1.51154,1.795697 2.39992,4.028266 3.09143,6.240284 0.47686,2.469885 0.59098,5.016462 0.40693,7.514522 -0.5406,2.7899 -1.19974,5.64328 -2.53396,8.16311 -1.06417,1.76196 -2.39726,3.43682 -3.99191,4.72776 -2.61231,1.5916 -5.6071,2.50386 -8.58968,3.03657 -1.04329,0.11103 -2.24589,-0.36864 -3.11228,0.39826 2.26718,0.66611 2.85596,3.28097 3.29085,5.30545 0.0222,4.3234 0.0445,8.64681 0.0667,12.97021 0.62104,1.17165 2.01447,1.69055 2.79942,2.76898 0.67072,1.09622 -1.16781,1.26548 -1.91882,1.37008 -2.15122,-0.041 -4.04162,-1.40787 -5.05991,-3.26211 -0.48356,-1.97853 0.0471,-4.09049 -0.14399,-6.12639 0.0104,-2.38954 0.0619,-4.83012 -0.80459,-7.10066 -1.19907,-0.10536 -0.33523,1.7739 -0.59755,2.56974 -0.12491,3.3389 -0.35297,6.67874 0.0511,10.00854 -0.004,1.6346 1.27778,2.86061 1.96239,4.20701 0.62261,1.22602 -0.76027,1.63112 -1.66137,1.08714 -2.83924,-0.92069 -4.58863,-3.79865 -4.73074,-6.69447 -0.36971,-3.89271 -0.14365,-7.81721 0.01,-11.71787 -1.36211,-0.37727 -0.43103,1.56901 -0.65518,2.34477 0.0939,3.48992 0.23453,7.01246 0.0168,10.48589 -0.46901,1.72967 -1.30035,3.44472 -2.63941,4.66663 -1.19034,0.68122 -2.47698,0.98852 -3.84478,0.98072 -0.49778,-1.21897 0.94431,-2.17757 1.37139,-3.24007 0.47674,-1.1931 0.10617,-2.6283 0.23097,-3.91549 0.0148,-3.68482 0.22608,-7.36652 0.16392,-11.05254 -1.37217,3.04281 -1.08212,6.48888 -1.17291,9.75069 -0.10815,1.34178 0.24982,2.80874 -0.14892,4.07248 -0.8246,1.9059 -2.95031,2.43137 -4.816328,2.69748 -0.720407,0.14806 -2.531979,0.28743 -2.293385,-0.8284 0.345331,-0.97346 1.78536,-0.94203 2.047152,-2.05741 1.601311,-1.80221 1.093001,-4.29934 1.172051,-6.50497 -0.23484,-0.63955 0.51331,-2.90283 -0.450301,-2.33858 -2.288336,0.94583 -4.792968,0.0944 -7.101154,-0.36349 -2.171371,-0.55338 -3.517858,-2.4968 -4.34034,-4.46101 -0.78019,-1.66141 -1.44218,-3.53938 -3.19476,-4.42439 -0.845733,-0.62641 -1.835732,-1.37804 -2.21945,-2.35347 -0.285464,-1.35323 1.550903,-1.15903 2.422216,-1.13703 1.800526,0.0858 2.898442,1.81501 4.083674,2.97587 1.364063,1.3795 2.189005,3.37863 4.020342,4.1926 2.046346,0.576 4.166109,0.11968 6.19407,-0.2476 1.307943,0.32839 0.757813,-1.49821 1.446613,-2.1736 0.34938,-1.04321 1.28529,-1.70812 2.01074,-2.48858 -1.89408,-0.57936 -3.938176,-0.16038 -5.754567,-1.06227 -2.717646,-1.08802 -5.847744,-1.83505 -7.675909,-4.30499 -3.136852,-3.25234 -4.752279,-7.69505 -5.296358,-12.11048 -0.05789,-3.48438 0.177185,-7.112138 1.934523,-10.206703 0.509925,-1.109988 1.312057,-2.07383 2.222722,-2.882829 -0.536784,-2.650552 -0.536145,-5.408504 -0.565876,-8.09627 0.232295,-1.403978 1.135894,-3.028977 2.747484,-2.958902 1.770296,-0.03126 3.433986,0.79928 5.077824,1.374579 1.569075,0.846609 2.841562,2.144221 4.545747,2.752264 z"
       id="path2" /></g></svg>
